<svg width="14" height="16" viewBox="0 0 14 16" fill="none" xmlns="http://www.w3.org/2000/svg">
<path d="M9.46924 9.27124C10.5435 9.27124 11.4614 9.66187 12.2231 10.4431C13.0044 11.2048 13.395 12.1228 13.395 13.197V13.9587C13.395 14.3494 13.2583 14.6814 12.9849 14.9548C12.7114 15.2283 12.3794 15.365 11.9888 15.365H1.67627C1.28564 15.365 0.953613 15.2283 0.680176 14.9548C0.406738 14.6814 0.27002 14.3494 0.27002 13.9587V13.197C0.27002 12.1228 0.650879 11.2048 1.4126 10.4431C2.19385 9.66187 3.12158 9.27124 4.1958 9.27124C4.44971 9.27124 4.8208 9.34937 5.30908 9.50562C5.81689 9.66187 6.32471 9.73999 6.83252 9.73999C7.34033 9.73999 7.84814 9.66187 8.35596 9.50562C8.86377 9.34937 9.23486 9.27124 9.46924 9.27124ZM11.9888 13.9587V13.197C11.9888 12.5134 11.7349 11.9275 11.2271 11.4392C10.7388 10.9314 10.1528 10.6775 9.46924 10.6775C9.41064 10.6775 9.09814 10.7556 8.53174 10.9119C7.98486 11.0681 7.41846 11.1462 6.83252 11.1462C6.24658 11.1462 5.67041 11.0681 5.104 10.9119C4.55713 10.7556 4.25439 10.6775 4.1958 10.6775C3.51221 10.6775 2.9165 10.9314 2.40869 11.4392C1.92041 11.9275 1.67627 12.5134 1.67627 13.197V13.9587H11.9888ZM9.8208 7.57202C9.00049 8.39233 8.00439 8.80249 6.83252 8.80249C5.66064 8.80249 4.66455 8.39233 3.84424 7.57202C3.02393 6.75171 2.61377 5.75562 2.61377 4.58374C2.61377 3.41187 3.02393 2.41577 3.84424 1.59546C4.66455 0.775146 5.66064 0.36499 6.83252 0.36499C8.00439 0.36499 9.00049 0.775146 9.8208 1.59546C10.6411 2.41577 11.0513 3.41187 11.0513 4.58374C11.0513 5.75562 10.6411 6.75171 9.8208 7.57202ZM8.82471 2.59155C8.27783 2.04468 7.61377 1.77124 6.83252 1.77124C6.05127 1.77124 5.38721 2.04468 4.84033 2.59155C4.29346 3.13843 4.02002 3.80249 4.02002 4.58374C4.02002 5.36499 4.29346 6.02905 4.84033 6.57593C5.38721 7.1228 6.05127 7.39624 6.83252 7.39624C7.61377 7.39624 8.27783 7.1228 8.82471 6.57593C9.37158 6.02905 9.64502 5.36499 9.64502 4.58374C9.64502 3.80249 9.37158 3.13843 8.82471 2.59155Z" fill="#009444"/>
</svg>
