<svg width="46" height="51" viewBox="0 0 46 51" fill="none" xmlns="http://www.w3.org/2000/svg">
<path d="M34.0385 32.3463C34.2735 32.1944 34.3778 31.9044 34.2948 31.6371C34.2118 31.3697 33.9408 31.1842 33.6814 31.1976C32.529 31.2403 31.4322 30.702 30.7815 29.7901C30.1834 28.9508 30.0454 27.923 30.4025 26.9696C30.4995 26.7108 30.4147 26.4196 30.195 26.2524C29.9752 26.087 29.6719 26.0839 29.4485 26.2457C28.5372 26.9116 27.3439 27.0947 26.2556 26.7334C25.2168 26.3897 24.444 25.6225 24.1352 24.6276C24.054 24.3657 23.8123 24.1875 23.5382 24.1875C23.2642 24.1875 23.0225 24.3657 22.9413 24.6276C22.6324 25.6225 21.8597 26.3897 20.8209 26.7334C19.7332 27.0953 18.5399 26.9122 17.628 26.2457C17.4058 26.0839 17.1025 26.087 16.8815 26.2524C16.6618 26.4196 16.5769 26.7108 16.674 26.9696C17.0311 27.923 16.8931 28.9508 16.2949 29.7901C15.6443 30.702 14.5481 31.2422 13.3951 31.1976C13.1283 31.1848 12.8647 31.3697 12.7816 31.6371C12.6986 31.9044 12.803 32.1944 13.038 32.3463C13.9627 32.9482 14.4937 33.8997 14.4937 34.9569C14.4937 36.0147 13.9633 36.9662 13.038 37.5687C12.803 37.7213 12.6986 38.0106 12.7816 38.2779C12.8647 38.5453 13.1277 38.6991 13.3951 38.7174C14.5456 38.6655 15.6443 39.2124 16.2949 40.1249C16.8931 40.9642 17.0311 41.9921 16.674 42.9455C16.5769 43.2043 16.6618 43.4954 16.8815 43.6626C17.1025 43.8305 17.4058 43.8317 17.628 43.6694C18.5393 43.0034 19.7332 42.8203 20.8209 43.1811C21.8597 43.5247 22.6324 44.2919 22.9413 45.2868C23.0225 45.5487 23.2642 45.7269 23.5382 45.7269C23.8123 45.7269 24.054 45.5487 24.1352 45.2868C24.444 44.2919 25.2168 43.5247 26.2556 43.1811C27.3445 42.8209 28.5372 43.004 29.4485 43.6694C29.6719 43.8317 29.9752 43.8293 30.195 43.6626C30.4147 43.4954 30.4995 43.2043 30.4025 42.9455C30.0454 41.9921 30.1834 40.9642 30.7815 40.1249C31.4322 39.2124 32.5315 38.668 33.6814 38.7174C33.9414 38.6997 34.2118 38.5453 34.2948 38.2779C34.3778 38.0106 34.2735 37.7213 34.0385 37.5687C33.1131 36.9662 32.5827 36.0147 32.5827 34.9569C32.5827 33.8997 33.1138 32.9482 34.0385 32.3463ZM29.7634 39.3992C29.2013 40.1884 28.9272 41.0979 28.9577 42.0159C27.9738 41.6734 26.8837 41.6576 25.8631 41.9939C24.8914 42.3155 24.0882 42.9113 23.5382 43.6968C22.9883 42.9113 22.185 42.3155 21.2133 41.9939C20.7177 41.8303 20.2056 41.7497 19.6972 41.7497C19.1588 41.7497 18.6247 41.8395 18.1187 42.0159C18.1493 41.0979 17.8752 40.1884 17.3131 39.3992C16.6984 38.5373 15.8067 37.927 14.794 37.6438C15.4026 36.8826 15.7438 35.942 15.7438 34.9569C15.7438 33.9724 15.4026 33.0324 14.7947 32.2713C15.8067 31.9881 16.6984 31.3771 17.3131 30.5158C17.8758 29.726 18.1493 28.8172 18.1187 27.8986C19.1033 28.2422 20.1934 28.2581 21.2133 27.9205C22.185 27.5989 22.9883 27.0025 23.5382 26.2176C24.0882 27.0025 24.8914 27.5989 25.8631 27.9205C26.8831 28.2581 27.9732 28.2422 28.9577 27.8986C28.9272 28.8172 29.2007 29.726 29.7634 30.5158C30.3781 31.3771 31.2698 31.9881 32.2818 32.2713C31.6739 33.0324 31.3327 33.9724 31.3327 34.9569C31.3327 35.942 31.6739 36.8826 32.2824 37.6438C31.2698 37.927 30.3781 38.538 29.7634 39.3992Z" fill="white"/>
<path d="M23.5387 29.7817C20.6846 29.7817 18.3628 32.1036 18.3628 34.9577C18.3628 37.8112 20.6846 40.133 23.5387 40.133C26.3928 40.133 28.7147 37.8112 28.7147 34.9577C28.7147 32.1036 26.3928 29.7817 23.5387 29.7817ZM23.5387 38.883C21.3738 38.883 19.6128 37.1221 19.6128 34.9577C19.6128 32.7927 21.3738 31.0318 23.5387 31.0318C25.7037 31.0318 27.4647 32.7927 27.4647 34.9577C27.4647 37.1221 25.7037 38.883 23.5387 38.883Z" fill="white"/>
<path d="M43.8122 42.2071L42.5796 20.8863C43.4205 20.3503 43.9831 19.4152 43.9831 18.3458V14.7086C43.9831 13.0447 42.6299 11.6915 40.9667 11.6915H40.9193C40.7696 8.65553 38.2601 6.2293 35.1877 6.2293C34.3838 6.2293 33.5928 6.39899 32.8615 6.72431C31.8202 3.33919 28.6591 0.959961 25.0531 0.959961C22.202 0.959961 19.6006 2.42485 18.1143 4.82545C16.907 4.15587 15.5532 3.80491 14.161 3.80491C9.75118 3.80491 6.15594 7.31805 6.00433 11.6915H5.95695C4.29369 11.6915 2.9405 13.0447 2.9405 14.7086V18.3458C2.9405 19.4152 3.50311 20.3503 4.34405 20.8863L3.1114 42.2071L2.03776 44.4264C1.35475 45.1485 0.97998 46.089 0.97998 47.087C0.97998 48.1222 1.38283 49.0951 2.11466 49.827C3.62533 51.3388 6.08452 51.3364 7.59397 49.827L8.26782 49.1525C10.6416 49.7031 24.6337 52.6426 38.6595 49.1562L39.3297 49.827C40.0847 50.5826 41.0772 50.9598 42.069 50.9598C43.0615 50.9598 44.0539 50.5826 44.809 49.827C45.5408 49.0951 45.9436 48.1222 45.9436 47.087C45.9436 46.089 45.5689 45.1485 44.8859 44.4264L43.8122 42.2071ZM14.161 5.05495C15.53 5.05495 16.8558 5.45596 17.9941 6.21465C18.1424 6.31353 18.3255 6.34405 18.4983 6.2995C18.6704 6.25494 18.8157 6.13836 18.8968 5.97966C20.0901 3.65475 22.4486 2.21 25.0531 2.21C28.3442 2.21 31.1977 4.54956 31.8392 7.77354C31.8795 7.97558 32.0162 8.14465 32.206 8.22583C32.3952 8.30823 32.6125 8.28992 32.7865 8.17944C33.5091 7.72166 34.3393 7.47934 35.1877 7.47934C37.571 7.47934 39.5213 9.34487 39.6693 11.6915H7.25438C7.40521 8.00785 10.4409 5.05495 14.161 5.05495ZM4.19054 14.7086C4.19054 13.7344 4.9828 12.9416 5.95695 12.9416H40.9667C41.9408 12.9416 42.7331 13.7344 42.7331 14.7086V18.3458C42.7331 19.32 41.9408 20.1128 40.9667 20.1128H5.95695C4.9828 20.1128 4.19054 19.32 4.19054 18.3458V14.7086ZM43.9251 48.9431C43.4295 49.4388 42.7703 49.7116 42.0696 49.7116C41.3683 49.7116 40.7091 49.4388 40.2135 48.9431L39.2924 48.0215C39.1368 47.8658 38.9085 47.803 38.6955 47.8579C23.5839 51.7295 8.38074 47.897 8.22937 47.8585C8.01269 47.8017 7.78685 47.8652 7.6312 48.0215L6.71015 48.9431C6.21453 49.4388 5.55533 49.7116 4.85401 49.7116C4.1533 49.7116 3.4941 49.4388 2.99848 48.9431C2.50286 48.4475 2.23002 47.7883 2.23002 47.087C2.23002 46.3863 2.50286 45.7271 2.99848 45.2315C3.04792 45.182 3.08882 45.1247 3.11933 45.0618L4.29125 42.6398C4.32665 42.566 4.34801 42.4854 4.35229 42.4036L5.57059 21.3238C5.69846 21.3404 5.82466 21.3629 5.95695 21.3629H40.9667C41.099 21.3629 41.2252 21.3404 41.353 21.3238L42.5713 42.4036C42.5756 42.4854 42.597 42.566 42.6324 42.6398L43.8043 45.0618C43.8348 45.1247 43.8757 45.182 43.9251 45.2315C44.4208 45.7271 44.6936 46.3863 44.6936 47.087C44.6936 47.7883 44.4208 48.4475 43.9251 48.9431Z" fill="white"/>
</svg>
