<svg width="50" height="50" viewBox="0 0 50 50" fill="none" xmlns="http://www.w3.org/2000/svg">
<path d="M49.6693 13.683L30.2116 3.13611C30.0267 3.03632 29.8036 3.0354 29.618 3.13519L16.9587 9.93089V8.47913C16.9587 3.80353 13.1547 -0.000488281 8.47913 -0.000488281C3.80353 -0.000488281 -0.000488281 3.80353 -0.000488281 8.47913V42.8642C-0.000488281 43.2094 0.279358 43.4892 0.624512 43.4892H9.64154V49.3745C9.64154 49.7197 9.92139 49.9995 10.2665 49.9995H49.3715C49.7166 49.9995 49.9965 49.7197 49.9965 49.3745V14.2326C49.9965 14.0034 49.871 13.7925 49.6693 13.683ZM39.6296 29.2372L30.5388 46.6739V29.2372H39.6296ZM29.2888 46.7839L19.6717 29.2372H29.2888V46.7839ZM19.239 31.0484L28.9407 48.7495H19.239V31.0484ZM40.399 30.4654V48.7495H30.8664L40.399 30.4654ZM41.024 27.9872H18.614C18.2689 27.9872 17.989 28.267 17.989 28.6122V48.7495H10.8915V20.5295L29.9122 10.319L48.7465 20.5278V48.7495H41.649V28.6122C41.649 28.267 41.3691 27.9872 41.024 27.9872ZM9.64154 14.2326V21.5052H1.24951V11.9517H13.1942L9.97083 13.6821C9.76819 13.7907 9.64154 14.0025 9.64154 14.2326ZM1.24951 22.7552H9.64154V32.823H1.24951V22.7552ZM29.9122 4.39587L48.7465 14.6046V19.1062L30.2116 9.05957C30.0267 8.95917 29.8036 8.95856 29.618 9.05835L10.8915 19.111V14.6064L29.9122 4.39587ZM8.47913 1.24951C12.4656 1.24951 15.7087 4.49261 15.7087 8.47913V10.6019L15.5228 10.7017H1.24951V8.47913C1.24951 4.49261 4.49261 1.24951 8.47913 1.24951ZM1.24951 42.2392V34.073H9.64154V42.2392H1.24951Z" fill="white"/>
<path d="M29.9762 17.3687H29.6609C26.6373 17.3687 24.1772 19.8287 24.1772 22.8524V24.2198C24.1772 24.565 24.4571 24.8448 24.8022 24.8448H34.8349C35.1801 24.8448 35.4599 24.565 35.4599 24.2198V22.8524C35.4599 19.8287 32.9999 17.3687 29.9762 17.3687ZM34.2099 23.5948H25.4272V22.8524C25.4272 20.5178 27.3264 18.6187 29.6609 18.6187H29.9762C32.3108 18.6187 34.2099 20.5178 34.2099 22.8524V23.5948Z" fill="white"/>
</svg>
